name C:\Users\antoi\Documents\MyRepositories\upper-imu-dc\Results\main_tracking\Case_78\FLX01_orientations_groundFrame.mot
datacolumns 13
datarows 18
range 0.71000000 0.88000000
endheader 
time	radius_imu_[0][0]	radius_imu_[0][1]	radius_imu_[0][2]	radius_imu_[1][0]	radius_imu_[1][1]	radius_imu_[1][2]	radius_imu_[2][0]	radius_imu_[2][1]	radius_imu_[2][2]	radius_imu_x	radius_imu_y	radius_imu_z	
          0.71000000	          0.65383473	         -0.11861895	          0.74728153	         -0.11721249	          0.95983354	          0.25491335	         -0.74750343	         -0.25426193	          0.61366888	         -0.39370481	          0.84396166	          0.17946841	
          0.72000000	          0.65152271	         -0.12567477	          0.74814705	         -0.11580296	          0.95814998	          0.26179818	         -0.74973851	         -0.25720510	          0.60970296	         -0.40558011	          0.84526512	          0.19055355	
          0.73000000	          0.64922462	         -0.13309293	          0.74886158	         -0.11429827	          0.95631879	          0.26905442	         -0.75195964	         -0.26027034	          0.60565341	         -0.41805215	          0.84634262	          0.20220138	
          0.74000000	          0.64691288	         -0.14088561	          0.74943643	         -0.11269598	          0.95433037	          0.27668243	         -0.75419052	         -0.26344790	          0.60149137	         -0.43113380	          0.84721046	          0.21443317	
          0.75000000	          0.64455668	         -0.14906417	          0.74988437	         -0.11099349	          0.95217537	          0.28467965	         -0.75645696	         -0.26672445	          0.59718584	         -0.44483605	          0.84788728	          0.22727063	
          0.76000000	          0.64212082	         -0.15763880	          0.75022054	         -0.10918902	          0.94984477	          0.29304040	         -0.75878759	         -0.27008319	          0.59270268	         -0.45916870	          0.84839557	          0.24073616	
          0.77000000	          0.63956718	         -0.16661824	          0.75046132	         -0.10728151	          0.94732994	          0.30175597	         -0.76121252	         -0.27350384	          0.58800608	         -0.47413997	          0.84875980	          0.25485243	
          0.78000000	          0.63685636	         -0.17600972	          0.75062278	         -0.10527053	          0.94462268	          0.31081522	         -0.76376180	         -0.27696311	          0.58306033	         -0.48975662	          0.84900413	          0.26964196	
          0.79000000	          0.63394994	         -0.18581876	          0.75071890	         -0.10315574	          0.94171527	          0.32020500	         -0.76646355	         -0.28043490	          0.57783207	         -0.50602296	          0.84914962	          0.28512624	
          0.80000000	          0.63081306	         -0.19604891	          0.75075942	         -0.10093619	          0.93860050	          0.32991057	         -0.76934178	         -0.28389069	          0.57229302	         -0.52293938	          0.84921097	          0.30132410	
          0.81000000	          0.62741725	         -0.20670211	          0.75074751	         -0.09860984	          0.93527126	          0.33991729	         -0.77241420	         -0.28730106	          0.56642246	         -0.54050233	          0.84919294	          0.31825077	
          0.82000000	          0.62374636	         -0.21777782	          0.75067523	         -0.09617476	          0.93171939	          0.35021334	         -0.77568737	         -0.29064031	          0.56021185	         -0.55870320	          0.84908352	          0.33591278	
          0.83000000	          0.61980592	         -0.22926603	          0.75051829	         -0.09363170	          0.92793610	          0.36078761	         -0.77914936	         -0.29389060	          0.55367372	         -0.57751669	          0.84884601	          0.35429170	
          0.84000000	          0.61561490	         -0.24115559	          0.75024148	         -0.09097922	          0.92391109	          0.37163299	         -0.78277779	         -0.29703919	          0.54683329	         -0.59690945	          0.84842723	          0.37335787	
          0.85000000	          0.61120100	         -0.25343354	          0.74980316	         -0.08821195	          0.91963416	          0.38274229	         -0.78654433	         -0.30007407	          0.53972545	         -0.61683559	          0.84776453	          0.39307022	
          0.86000000	          0.60660020	         -0.26608433	          0.74915641	         -0.08532046	          0.91509555	          0.39410728	         -0.79041547	         -0.30298392	          0.53239471	         -0.63723439	          0.84678761	          0.41337410	
          0.87000000	          0.60185509	         -0.27909052	          0.74825058	         -0.08229092	          0.91028590	          0.40571886	         -0.79435423	         -0.30575819	          0.52489359	         -0.65803086	          0.84542115	          0.43420236	
          0.88000000	          0.59701324	         -0.29243366	          0.74703263	         -0.07910516	          0.90519595	          0.41756755	         -0.79832172	         -0.30838749	          0.51728096	         -0.67913729	          0.84358717	          0.45547675	
